<svg xmlns="http://www.w3.org/2000/svg" viewBox="0 0 1733.67 303"><defs><style>.cls-1{fill:#a1a8b0;}.cls-2{fill:#768187;}.cls-3{fill:#070606;}.cls-4{fill:#736a67;}.cls-5{fill:#fecb39;}.cls-6{fill:#f4e2cd;}.cls-7{fill:#ffa600;}.cls-8{fill:#5ebfaa;}.cls-9{fill:#1a8abb;}.cls-10{fill:#1579ab;}.cls-11{fill:#fecb3a;}.cls-12{fill:#fed796;}.cls-13{fill:none;stroke:#070606;stroke-miterlimit:10;stroke-width:2px;}.cls-14{fill:#eab679;}.cls-15{fill:#f6f6f4;}.cls-16{fill:#e9e7e3;}.cls-17{fill:#0b0e0f;}</style></defs><title>Ativo 3</title><g id="Camada_2" data-name="Camada 2"><g id="Camada_1-2" data-name="Camada 1"><path class="cls-1" d="M154.56,44.62h-5.28a10.52,10.52,0,0,1-10.49-10.55v-19A10.52,10.52,0,0,1,149.29,4.55h5.28A10.52,10.52,0,0,1,165.05,15.1v19A10.52,10.52,0,0,1,154.56,44.62Z"/><path class="cls-2" d="M154.57,4.55h-5.29a10.43,10.43,0,0,0-2.12.22V44.41a10.48,10.48,0,0,0,2.12.22h5.29a10.52,10.52,0,0,0,10.48-10.56v-19A10.52,10.52,0,0,0,154.57,4.55Z"/><path class="cls-3" d="M414.39,156.45q-6.4,7.88-18.24,10.48l24.64,34h-3.4l-24.23-33.42c-3.63.37-6.54.55-8.72.55H354.89v32.87h-2.72V105.18h32.27q17.29,0,26.83,8.14t9.53,22.94Q420.79,148.59,414.39,156.45Zm-30,8.84q16.06,0,24.85-7.6t8.78-21.43q0-13.55-8.78-21t-24.85-7.4H354.89v57.38Z"/><path class="cls-3" d="M450.47,105.18H510v2.73H453.19v42.31h50.51V153H453.19v45.19h58.68v2.74h-61.4Z"/><path class="cls-3" d="M538.15,105.18h55.41v2.73H540.87v46H587.3v2.74H540.87v44.23h-2.72Z"/><path class="cls-3" d="M675.05,111.13a49,49,0,0,1,17.83,17.59,47.4,47.4,0,0,1,0,48.28,49.37,49.37,0,0,1-17.83,17.73,48.74,48.74,0,0,1-48.88,0A49.35,49.35,0,0,1,608.34,177a47.43,47.43,0,0,1,0-48.28,49,49,0,0,1,17.84-17.59,49.19,49.19,0,0,1,48.88,0Zm-47.45,2.4a46.55,46.55,0,0,0-16.88,16.64,43.38,43.38,0,0,0-6.26,22.66,44,44,0,0,0,6.26,22.87,46.47,46.47,0,0,0,16.88,16.71,46,46,0,0,0,46,0A46.47,46.47,0,0,0,690.5,175.7a44,44,0,0,0,6.27-22.87,43.42,43.42,0,0,0-6.27-22.66,46.55,46.55,0,0,0-16.88-16.64,46,46,0,0,0-46,0Z"/><path class="cls-3" d="M785.94,156.45q-6.4,7.88-18.24,10.48l24.64,34h-3.4L764.7,167.48c-3.63.37-6.54.55-8.72.55H726.44v32.87h-2.72V105.18H756q17.29,0,26.83,8.14t9.53,22.94Q792.34,148.59,785.94,156.45Zm-30,8.84q16.06,0,24.85-7.6t8.78-21.43q0-13.55-8.78-21T756,107.91H726.44v57.38Z"/><path class="cls-3" d="M822,105.18h4.76l41.53,79.29,41.25-79.29h4.77v95.72h-2.72l-.14-93.12-43.16,82.57H868l-43.29-82.57v93.12H822Z"/><path class="cls-3" d="M1020.66,200.89l-13.34-29.17H949.59l-13.21,29.17h-3.27l43.57-95.72h3l44.11,95.72ZM950.82,169H1006l-27.77-60.66Z"/><path class="cls-3" d="M1080,200.89h-41.66V105.18h37a53.11,53.11,0,0,1,16.68,2.33q7,2.33,10.42,6.3a24.54,24.54,0,0,1,6.53,16.71q0,11.22-7.08,16.7a29.47,29.47,0,0,1-3.54,2.4c-.63.32-1.77.85-3.4,1.58a24.9,24.9,0,0,1,14.09,8,22.38,22.38,0,0,1,5.24,15.13,25.8,25.8,0,0,1-6.81,17.66Q1099.49,200.89,1080,200.89Zm-25.6-56h20.42q17.43,0,17.43-11.91,0-6.85-4.22-9.86t-13.07-3h-20.56Zm0,41.08h25.19q8.85,0,13.54-2.8t4.7-10.62q0-12.73-20.29-12.73h-23.14Z"/><path class="cls-3" d="M1201.33,105.18v15.2h-50.79v25.34h45.61v14.37h-45.61V185.7H1203v15.2h-68.48V105.18Z"/><path class="cls-3" d="M1239.59,200.89h-16.06V105.18h25.05l28.73,60.12L1306,105.18h24.91v95.72h-16.06V126.13l-33.22,66.42h-9l-33.09-66.42Z"/><path class="cls-3" d="M1373.42,120.23v26.29h42.21v14.93h-42.21v39.44h-16.06V105.18h63.44l-.13,15.06Z"/><path class="cls-3" d="M1506.44,105.18v15.2h-50.79v25.34h45.61v14.37h-45.61V185.7h52.42v15.2h-68.48V105.18Z"/><path class="cls-3" d="M1528.63,105.18h16.06v95.72h-16.06Z"/><path class="cls-3" d="M1607,120v80.93H1591V120h-28.87V105.18h73.8V120Z"/><path class="cls-3" d="M1659.34,179.12l-9.53,21.78h-17.16l41.94-95.72h17.16l41.93,95.72h-17.16L1707,179.12Zm41.12-14.92-17.29-39.44-17.29,39.44Z"/><path d="M45,228.63V260a29.25,29.25,0,0,0-15.84,26c0,7.9,3.16-2.52,8.51,2.87A29,29,0,0,0,46.61,295a2.63,2.63,0,0,0,2.5-.21,2.66,2.66,0,0,0,1.19-2.22v-6.09H66.15v6.09a2.66,2.66,0,0,0,1.19,2.22,2.63,2.63,0,0,0,2.5.21c10.59-4.65,17.43,2.64,17.43-9h0a29.25,29.25,0,0,0-15.85-26V180.19a29.3,29.3,0,0,0-1.58-52.82,2.63,2.63,0,0,0-2.5.21,2.66,2.66,0,0,0-1.19,2.22v23.9H50.31V129.8a2.66,2.66,0,0,0-1.2-2.22,2.63,2.63,0,0,0-2.5-.21A29.3,29.3,0,0,0,45,180.19V210"/><path class="cls-4" d="M71.43,283.85a2.65,2.65,0,0,0-2.64-2.66H47.66A2.65,2.65,0,0,0,45,283.85v4.28c-6.53-4.39-10.56,6-10.56-2.08a23.92,23.92,0,0,1,14.26-21.92,2.66,2.66,0,0,0,1.58-2.43v-83.2a2.66,2.66,0,0,0-1.58-2.43,24,24,0,0,1-3.7-41.8v22.08A2.65,2.65,0,0,0,47.66,159H68.79a2.65,2.65,0,0,0,2.64-2.66V134.27a24,24,0,0,1-3.7,41.8,2.66,2.66,0,0,0-1.58,2.43v83.2a2.66,2.66,0,0,0,1.58,2.43A23.93,23.93,0,0,1,82,286.05c0,8.08-4-2.31-10.56,2.08"/><polygon class="cls-5" points="235.44 191.64 272.69 191.64 271.57 194.62 264.18 200.77 244.09 197.99 235.44 191.64"/><polygon class="cls-6" points="227.99 130.93 245.61 130.93 274.78 130.93 274.78 165.06 227.99 165.06 227.99 130.93"/><polygon class="cls-7" points="227.72 166.43 242.99 166.43 274.78 166.43 274.78 190.72 262.16 190.72 228.97 190.72 226.79 184.45 227.72 166.43"/><path class="cls-3" d="M260.06,206.34c3.72-6,13.35-11.27,17.58-13.09l1.35-.58V127.5H224.5v65.16l1.35.58c5.31,2.28,19.08,9.93,19.08,17.77m29.51-22H229v-22h45.41Zm-28.31,13.38a40.5,40.5,0,0,0-10.55-9H267.9a44,44,0,0,0-9.28,7.46m9-69h6.81v30.77H229V131.9h11.35v2.62h4.54V131.9H263.1"/><rect class="cls-3" x="233.95" y="172.09" width="25.8" height="4.32"/><rect class="cls-3" x="264.05" y="172.09" width="4.3" height="4.32"/><path class="cls-8" d="M237.28,142.93h0Z"/><path class="cls-9" d="M233.33,132.37l.1,14.92a3.54,3.54,0,0,0,3.53,3.52h0a3.48,3.48,0,0,0,3.48-3.52v-.72a3.48,3.48,0,0,1,3.48-3.52h0a3.54,3.54,0,0,1,3.53,3.52l0,5.34a3.54,3.54,0,0,0,3.53,3.52h0a3.48,3.48,0,0,0,3.48-3.52l-.23-19.54Z"/><path class="cls-10" d="M243.42,143.08l-4.87,0a3.48,3.48,0,0,0-3.48,3.52v.72a3.5,3.5,0,0,1-.81,2.27h0l.25.26.05,0,.22.19.08.06.21.15.1.06.21.12.11.06.22.09.13,0,.23.07.13,0,.25,0,.12,0,.38,0a3.48,3.48,0,0,0,3.48-3.52v-.72A3.49,3.49,0,0,1,243.42,143.08Z"/><path class="cls-10" d="M248.89,132.36l.23,19.54a3.5,3.5,0,0,1-.81,2.27,3.49,3.49,0,0,0,6.17-2.27l-.23-19.54Z"/><path class="cls-3" d="M232.5,130.88l-.19,2.66v13.8a4.86,4.86,0,0,0,8.35,3.41,5,5,0,0,0,1.44-3.5v-.74a2.24,2.24,0,0,1,.65-1.58,2.2,2.2,0,0,1,3.78,1.55v5.42a4.86,4.86,0,0,0,8.35,3.41,5,5,0,0,0,1.44-3.5l-.07-18.48.24-3.28-1.58.6h0l-21.24.18h0Zm21.12,21a2.24,2.24,0,0,1-.65,1.58,2.2,2.2,0,0,1-3.78-1.55v-5.42a4.86,4.86,0,0,0-8.35-3.41,5,5,0,0,0-1.44,3.49v.74a2.24,2.24,0,0,1-.65,1.58,2.2,2.2,0,0,1-3.78-1.55v-13.8l18.56-.16Z"/><path class="cls-11" d="M79.93,199.92"/><path class="cls-11" d="M47.58,199.92"/><path class="cls-12" d="M70.73,98.79"/><path class="cls-3" d="M254,203.63"/><path class="cls-3" d="M232,201.5"/><path class="cls-3" d="M231.68,201.5"/><path class="cls-13" d="M292.76,256.72"/><path class="cls-12" d="M93.73,115h4.84v3c0,16.54,12.17,35.33,27.24,44.56v15.28a3.27,3.27,0,0,1-2.29,3.13l-29,9,.06.07a78.37,78.37,0,0,0,114.77,0l.06-.07-29-9a3.27,3.27,0,0,1-2.29-3.13V162.44c15.08-9.24,27.25-28,27.25-44.55V115h4.84a7.5,7.5,0,0,0,7.48-7.52V92.71a7.5,7.5,0,0,0-7.48-7.52H93.74a7.5,7.5,0,0,0-7.48,7.52v14.73A7.5,7.5,0,0,0,93.73,115Z"/><path class="cls-14" d="M209.31,190l.06-.07-29-9a3.23,3.23,0,0,1-1.32-.8,3.28,3.28,0,0,1-1-2.33V162.44a40.38,40.38,0,0,1-11.21,4.84l-.58.15c-2.29.57-4.29,1-6.1,1.41v45.76A79,79,0,0,0,209.31,190Z"/><path class="cls-14" d="M205.27,85.19H187.38v32.7c0,20.51-18.7,44.45-38.46,49.39l-.58.15c-2.09.52-3.94,1-5.62,1.31,8.5,1.78,12.89,1.35,23.52-1.31l.58-.15a40.4,40.4,0,0,0,11.24-4.86q1.36-.84,2.69-1.77l.08-.06,1.11-.81.39-.29,1-.81.4-.32,1-.87.19-.17q1.73-1.49,3.36-3.13l.42-.42.88-.92.45-.49.84-.93.4-.47q.88-1,1.73-2.08l.2-.25.7-.92.49-.65.64-.89.51-.73.6-.88.53-.81.53-.83q.48-.77.93-1.55l.43-.75.54-1,.42-.79.5-1,.38-.77c.17-.36.34-.72.5-1.09l.3-.67q.37-.85.72-1.71l.2-.51c.17-.43.33-.86.48-1.28l.23-.68q.2-.57.38-1.15l.21-.69c.12-.41.24-.82.35-1.23.05-.19.11-.39.16-.58.15-.6.29-1.19.42-1.79,0-.09,0-.18.05-.26q.16-.77.28-1.54c0-.2.06-.4.09-.6.06-.41.12-.81.16-1.22,0-.21,0-.43.07-.64,0-.41.07-.83.1-1.24,0-.19,0-.38,0-.57,0-.59,0-1.18,0-1.76h0V115h0V85.19Z"/><path class="cls-1" d="M217,72.69h-2.78V66.58q0-.73,0-1.46c-.74-29.48-24.51-52.76-53-52.76H142.61c-28.48,0-52.25,23.28-53,52.76q0,.73,0,1.46v6.11H86.82a4.76,4.76,0,0,0-4.67,4.84v6.28a4.76,4.76,0,0,0,4.67,4.84H217a4.76,4.76,0,0,0,4.67-4.84V77.53A4.76,4.76,0,0,0,217,72.69Z"/><path class="cls-2" d="M217,72.69h-2.78V66.58q0-.73,0-1.46c-.74-29.48-24.51-52.76-53-52.76H143.29c28.48,0,52.25,23.28,53,52.76q0,.73,0,1.46v6.11h2.78a4.76,4.76,0,0,1,4.67,4.84v6.28a4.76,4.76,0,0,1-4.67,4.84H217a4.76,4.76,0,0,0,4.67-4.84V77.53A4.76,4.76,0,0,0,217,72.69Z"/><path class="cls-9" d="M267.51,206.49l-62.57-22.24a3.47,3.47,0,0,0-3.62.83L197,189.43a63.6,63.6,0,0,1-90.14,0l-4.32-4.35a3.47,3.47,0,0,0-3.62-.83L36.33,206.49a44.29,44.29,0,0,0-29.27,39L4.34,288.42a9.64,9.64,0,0,0,9.58,10.29h276a9.64,9.64,0,0,0,9.58-10.29l-2.71-42.94A44.28,44.28,0,0,0,267.51,206.49Z"/><path class="cls-10" d="M299.5,288.42l-2.71-42.94a44.29,44.29,0,0,0-29.27-39l-3-1.05c8.05,8.63,13.28,23.27,13.94,33.66l3.77,59.6h7.66A9.64,9.64,0,0,0,299.5,288.42Z"/><polygon class="cls-15" points="45.62 203.19 45.62 298.7 79.32 298.7 79.32 191.21 45.62 203.19"/><polygon class="cls-15" points="224.53 191.21 224.53 298.7 258.23 298.7 258.23 203.19 224.53 191.21"/><path class="cls-9" d="M204.94,184.25a3.47,3.47,0,0,0-3.62.83L197,189.43a63.6,63.6,0,0,1-90.14,0l-4.32-4.35a3.47,3.47,0,0,0-3.62-.83l-12.08,4.29,10.56,10.91a77.26,77.26,0,0,0,109.07,0L217,188.54Z"/><polygon class="cls-16" points="240.34 298.7 258.23 298.7 258.23 203.19 240.34 196.83 240.34 298.7"/><polygon class="cls-16" points="61.43 298.7 79.32 298.7 79.32 191.21 61.43 197.57 61.43 298.7"/><path class="cls-17" d="M303.82,288.14,301.1,245.2A48.56,48.56,0,0,0,269,202.39l-9.28-3.3h0l-33.7-12h0l-19.58-7-.58-.18-.25-.06-.33-.07-.32-.05-.24,0-.38,0h-.49a7.92,7.92,0,0,0-1.16.09h-.06a7.67,7.67,0,0,0-2.05.62h0a7.75,7.75,0,0,0-.93.51l0,0-.28.2-.31.23-.2.16c-.16.14-.32.28-.48.44l-15.45-4.93V164.51l.8-.56.09-.06c12.26-8.62,21.66-22.33,25-35.88l0-.19q.22-.89.4-1.77l.07-.36q.38-1.93.59-3.83c0-.19,0-.39.06-.58q.06-.64.1-1.28c0-.23,0-.45,0-.67s0-.22,0-.32h.31a11.69,11.69,0,0,0,11.47-11.87V92.4c0-.39,0-.77-.06-1.15a9.3,9.3,0,0,0,4.06-7.74V77.26a8.59,8.59,0,0,0-7-8.5V66.54q0-.79,0-1.57a57.48,57.48,0,0,0-2-13.49,4.52,4.52,0,0,0-5.49-3.11,4.34,4.34,0,0,0-3.22,5.31,49,49,0,0,1,1.68,11.51q0,.67,0,1.35v6.11a4.43,4.43,0,0,0,4.5,4.35h3.15a.43.43,0,0,1,.35.47v6.06a.43.43,0,0,1-.35.47H87.18a.43.43,0,0,1-.35-.47V77.47a.43.43,0,0,1,.35-.47h2.28a4.36,4.36,0,0,0,4.37-4.35V66.54q0-.68,0-1.35c.61-23.76,18.22-43.86,41-47.81V34a14.93,14.93,0,0,0,14.86,15H155a14.93,14.93,0,0,0,14.86-15V17.3A49.23,49.23,0,0,1,202.3,38.94a4.35,4.35,0,1,0,7.3-4.71q-1-1.49-2-2.91A57.73,57.73,0,0,0,168.23,8.24,14.86,14.86,0,0,0,155,0h-5.69s-10.78,3.55-13.22,8.4a56.87,56.87,0,0,0-34.64,17.47A58.87,58.87,0,0,0,85.29,65a2.23,2.23,0,0,1-.47,1.57v1.9c-3.78.75-7,9.05-7,9.05v6a9.29,9.29,0,0,0,4.06,7.74c0,.38-.06.77-.06,1.16v14.73A11.7,11.7,0,0,0,93.33,119h1.35c0,.26,0,.52,0,.77v.09q.11,2,.42,4.07c0,.2.07.39.1.58q.1.61.22,1.22t.19.94c.05.24.11.47.16.71,3.31,14.45,13.46,28.8,26,37.28v12.09l-15.88,4.93c-.15-.15-.31-.3-.47-.43l-.2-.16-.31-.23-.28-.2h0a7.75,7.75,0,0,0-.94-.52h0a7.68,7.68,0,0,0-2.05-.62h-.05a7.81,7.81,0,0,0-1.16-.1H100l-.38,0-.24,0-.33.05-.33.07-.25.06-.58.18-12,4.29h0l-7.48,2.67h0l-33.62,12h0l-9.26,3.3A48.55,48.55,0,0,0,3.37,244.89L3,250a4.31,4.31,0,1,0,8.61.55l.33-5.15a39.87,39.87,0,0,1,26.33-35.16L41.83,209v85H13.92a3.94,3.94,0,0,1-3.84-1.32,5.3,5.3,0,0,1-1.42-4L11,250.9c.15-2.4-2.76-4.78-5.15-4.94s-3-3.16-3.16-.76L0,288.14a14.13,14.13,0,0,0,3.75,10.49A13.69,13.69,0,0,0,13.92,303h276a13.69,13.69,0,0,0,10.15-4.37A14.13,14.13,0,0,0,303.82,288.14ZM149.13,9h5.39a6.28,6.28,0,0,1,6.08,4.55v.06a6.54,6.54,0,0,1,.16.78h0a5.46,5.46,0,0,1,.05.75V33.87a6.23,6.23,0,0,1-6.3,6.13h-5.39a6.23,6.23,0,0,1-6.3-6.13V15.13a5.45,5.45,0,0,1,.05-.75h0a6.49,6.49,0,0,1,.16-.78v-.05A6.28,6.28,0,0,1,149.13,9ZM85.85,193.22l8.66,8.92.05.05a82,82,0,0,0,115.54,0l.05-.05,8.66-8.92,2,.72V294h-137V193.94Zm14-4.69,3.95,4a67.91,67.91,0,0,0,96.26,0l3.95-4,5.21,1.85-5.82,6a73,73,0,0,1-102.93,0l-5.82-6Zm3-70.54V93h98v21.93l1,0v2.91c0,.09,0,.19,0,.28,0,.42,0,.84,0,1.26,0,.2,0,.41,0,.61s-.05.67-.09,1,0,.4-.07.6q-.07.61-.17,1.22c0,.12,0,.24-.06.36-2.89,17.12-18.83,35.81-35,39.83l-.59.15c-5.77,1.43-9.86,2.26-13.68,2.26h0c-3.87,0-7.84-.81-13.83-2.32C120.36,158.64,102.83,136.28,102.83,118Zm111-10.23a3.35,3.35,0,0,1-3.44,3.24h-.56V93h4Zm-123,0V93h4v18h-.57A3.34,3.34,0,0,1,90.83,107.76ZM124.43,185a7.59,7.59,0,0,0,5.4-7.28V169.5a41.77,41.77,0,0,0,5.76,1.92c6.51,1.63,11.21,2.58,16,2.58h0c4.72,0,9.36-.92,15.79-2.51l.59-.15a41,41,0,0,0,5.9-2v8.31a7.59,7.59,0,0,0,5.4,7.28l12.32,3.77h0q-1,.85-2,1.66l-.28.22q-.95.76-1.92,1.47l-.21.15c-.68.49-1.37,1-2.06,1.44l-.05,0a11.12,11.12,0,0,1-1.94,1.24,2.86,2.86,0,0,0-.35.2c-.7.42-1.4.82-2.11,1.21l-.28.16q-1,.56-2.1,1.08l-.34.16q-1.06.51-2.13,1l-.34.15q-1.09.46-2.2.88l-.29.11c-.76.28-1.53.56-2.31.81a1.51,1.51,0,0,0-.43.18,4,4,0,0,1-1.95.55,1.72,1.72,0,0,0-.27.07c-.8.22-1.6.42-2.41.61l-.29.07q-1.17.26-2.35.48l-.37.07q-1.16.21-2.34.37l-.39.05q-1.18.16-2.37.27l-.36,0c-.81.07-1.63.13-2.45.16h-.25c-.86,0-1.73.06-2.6.06s-1.74,0-2.6-.06H149c-.82,0-1.64-.09-2.45-.16l-.36,0q-1.19-.11-2.37-.27l-.39-.05q-1.18-.16-2.34-.37l-.37-.07c-.79-.15-1.57-.3-2.35-.48l-.28-.07c-.81-.19-1.61-.39-2.41-.61l-.1,0q-1.21-.33-2.4-.72l-.15,0c-.78-.25-1.55-.53-2.31-.81l-.29-.11q-1.11-.42-2.2-.88l-.34-.15q-1.07-.46-2.13-1l-.34-.17q-1.06-.52-2.1-1.07l-.29-.16q-1.06-.58-2.11-1.2l-.17-.1q-1.07-.65-2.12-1.34l-.05,0c-.69-.46-1.38-.94-2.05-1.43l-.22-.16q-1-.71-1.91-1.46l-.29-.23q-1-.8-2-1.66h0ZM49.83,294V205.92l25-8.91v97Zm179,0V197l25,8.91V294ZM290,294H262.83V209l3.52,1.25a39.88,39.88,0,0,1,26.4,35.16l2.71,42.94A5.29,5.29,0,0,1,290,294Z"/><path class="cls-17" d="M201.45,25.14s9,7.18,15.4,27.19l-4.56.29-4,1.12s-6.09-15-7-15.45"/></g></g></svg>