<svg id="Camada_1" data-name="Camada 1" xmlns="http://www.w3.org/2000/svg" viewBox="0 0 76.41 88.13"><defs><style>.cls-1{fill:#e3e4e5;}.cls-2{fill:#6fac41;}.cls-3{fill:#d64220;}.cls-4{fill:#3d3938;}.cls-5{fill:#ee4823;}.cls-6{fill:#80c241;}.cls-10,.cls-7{fill:#231f20;}.cls-8{fill:#2d2929;}.cls-9{fill:none;stroke:#f3f0de;stroke-miterlimit:10;stroke-width:8px;}.cls-10{opacity:0.3;}</style></defs><title>reforma-bem-feita-simbolo</title><ellipse class="cls-1" cx="30.46" cy="84.59" rx="30.46" ry="3.54"/><rect class="cls-2" x="21.91" y="9.16" width="31.78" height="26.95" transform="translate(-6.68 31.48) rotate(-45)"/><rect class="cls-3" x="62.89" y="34.73" width="7.35" height="27.68" rx="1.91" ry="1.91" transform="translate(-16.6 59.42) rotate(-45)"/><path class="cls-4" d="M58.89,40.89a1.15,1.15,0,0,1-1.62,0l-5.74-5.74A1.15,1.15,0,0,1,51.24,34L56.82,14.2l-5.3-5.3-27,27a1.15,1.15,0,1,1-1.62-1.62l27.8-27.8a1.15,1.15,0,0,1,1.62,0l6.58,6.58a1.14,1.14,0,0,1,.29,1.12L53.62,34l5.26,5.26A1.15,1.15,0,0,1,58.89,40.89Z" transform="translate(-1.75 -1.87)"/><rect class="cls-5" x="53.19" y="38.16" width="10.21" height="4.29" rx="1.91" ry="1.91" transform="translate(-13.17 51.16) rotate(-45)"/><rect class="cls-6" x="19.38" y="16.34" width="35.22" height="10.98" rx="1.91" ry="1.91" transform="translate(-6.35 30.67) rotate(-45)"/><rect class="cls-7" x="49.36" y="8.03" width="0.56" height="2.29" transform="translate(6.3 35.91) rotate(-45)"/><rect class="cls-7" x="24.06" y="33.33" width="0.56" height="2.29" transform="translate(-19 25.43) rotate(-45)"/><rect class="cls-7" x="55.43" y="38.28" width="2.29" height="0.59" transform="translate(-12.46 49.43) rotate(-45)"/><path class="cls-8" d="M11.42,54l3.63,30.33a2.67,2.67,0,0,0,2.75,2.32H45.4a2.67,2.67,0,0,0,2.75-2.32L51.79,54Z" transform="translate(-1.75 -1.87)"/><path class="cls-9" d="M7.71,51.26s-1,24,24.19,24S55.17,51.88,55.17,51.88" transform="translate(-1.75 -1.87)"/><rect class="cls-4" x="7.17" y="46.17" width="45.54" height="6.21" rx="3" ry="3"/><circle class="cls-4" cx="53.42" cy="49.38" r="1.49"/><circle class="cls-4" cx="6.46" cy="49.27" r="1.49"/><path class="cls-10" d="M8.92,49.33A15.6,15.6,0,0,0,9,53.22a7.32,7.32,0,0,0,.31,1c.83.35,1.95-.38,2.29,0s.05,1.25.05,2.79a10.88,10.88,0,0,0,4.57,1.18c5.48.5,7.2-4,9-5s3.77,4.43,3.64,8.15-2,9.21,2.74,9.21,1-6,.88-9.38c-.11-5.43,4.36-9.07,6.24-9.09s1.76,4.17,7.34,3.85,8-7.91,7-7.91-36.75.33-43.4.44C9,48.5,8.92,49.33,8.92,49.33Z" transform="translate(-1.75 -1.87)"/><path class="cls-6" d="M8.92,48.75A15.6,15.6,0,0,0,9,52.64c1,3.81,3.65,4.66,7.21,5,5.48.5,7.2-4,9-5s3.77,4.43,3.64,8.15S26.89,70,31.6,70s1-6,.88-9.38c-.11-5.43,4.36-9.07,6.24-9.09s1.76,4.17,7.34,3.85S53.77,48,52.77,48L9.7,47.9C9,47.92,8.92,48.75,8.92,48.75Z" transform="translate(-1.75 -1.87)"/></svg>